<svg width="25" height="25" viewBox="0 0 25 25" fill="none" xmlns="http://www.w3.org/2000/svg">
<path d="M20.6507 25C19.7667 25 19.064 24.2955 19.064 23.4091C19.064 22.5227 19.7667 21.8182 20.6507 21.8182C21.5348 21.8182 22.2375 22.5227 22.2375 23.4091C22.2375 24.2955 21.5121 25 20.6507 25ZM7.95654 25C7.07248 25 6.36977 24.2955 6.36977 23.4091C6.36977 22.5227 7.07248 21.8182 7.95654 21.8182C8.8406 21.8182 9.54331 22.5227 9.54331 23.4091C9.54331 24.2955 8.81793 25 7.95654 25ZM7.70719 20.4545C6.50578 20.4545 5.46304 19.5 5.32703 18.2955L3.78559 7.43182L2.90153 2.36364C2.83353 1.81818 2.35749 1.36364 1.83613 1.36364H0.680046C0.294687 1.36364 0 1.06818 0 0.681818C0 0.295455 0.294687 0 0.680046 0H1.83613C3.03754 0 4.10295 0.954545 4.26162 2.15909L5.14568 7.22727L6.68712 18.1136C6.73246 18.6364 7.20849 19.0909 7.70719 19.0909H22.4415C22.8269 19.0909 23.1216 19.3864 23.1216 19.7727C23.1216 20.1591 22.8269 20.4545 22.4415 20.4545H7.70719ZM8.8406 16.8182C8.47791 16.8182 8.18322 16.5455 8.16056 16.1818C8.13789 16 8.20589 15.8182 8.31923 15.6818C8.43257 15.5455 8.61392 15.4545 8.7726 15.4545L21.0814 14.5455C21.6255 14.5455 22.1015 14.1136 22.1695 13.5909L23.5976 5.40909C23.6429 5.02273 23.5296 4.61364 23.3029 4.36364C23.1442 4.18182 22.9402 4.09091 22.6909 4.09091H7.02715C6.64179 4.09091 6.3471 3.79545 6.3471 3.40909C6.3471 3.02273 6.64179 2.72727 7.02715 2.72727H22.7362C23.3709 2.72727 23.9376 3 24.3683 3.45455C24.8444 4 25.071 4.79545 24.9804 5.59091L23.5523 13.7727C23.4163 14.9545 22.3509 15.8864 21.1721 15.8864L8.93128 16.7955C8.88594 16.8182 8.86327 16.8182 8.8406 16.8182Z" fill="#0D7D47"/>
</svg>
