<svg width="30" height="30" viewBox="0 0 30 30" fill="none" xmlns="http://www.w3.org/2000/svg">
<path d="M28.8859 16.931H24.7907V12.1232H28.8859C29.5012 12.1232 30 11.5145 30 10.7627C30 10.0109 29.5012 9.40179 28.8859 9.40179H24.7907V2.73084C24.7907 1.75705 24.6331 1.04231 24.3226 0.606927C24.0275 0.192734 23.6394 0 23.1021 0C22.5893 0 22.2159 0.191405 21.9265 0.603013C21.6195 1.03884 21.4638 1.75491 21.4638 2.73128V9.4026H13.7605L10.4851 3.34825C10.2048 2.80793 9.94126 2.3018 9.68531 1.81598C9.45486 1.37845 9.2301 1.02223 9.0178 0.75624C8.82985 0.52075 8.61567 0.338502 8.36516 0.19842C8.12879 0.0666076 7.82828 0.000443104 7.47277 0.000443104C7.01932 0.000443104 6.6077 0.152193 6.21355 0.463964C5.82352 0.772338 5.5539 1.1536 5.38923 1.6296C5.24469 2.08197 5.16822 2.77514 5.16822 3.66992V9.40216H1.11371C0.498487 9.40223 0 10.0113 0 10.7631C0 11.5149 0.498487 12.1236 1.11377 12.1236H5.16828V16.9318H1.11377C0.498487 16.9318 0 17.5408 0 18.2928C0 19.0444 0.498487 19.6529 1.11377 19.6529H5.16828V27.2694C5.16828 28.2144 5.33083 28.9219 5.6528 29.3714C5.95899 29.8001 6.34721 29.9991 6.87441 29.9991C7.38306 29.9991 7.76826 29.7992 8.08768 29.3697C8.41479 28.9298 8.58025 28.2227 8.58025 27.2695V19.6529H15.5508L19.323 26.7185C19.5853 27.1856 19.8561 27.657 20.1262 28.1193C20.3699 28.5343 20.6358 28.9001 20.9163 29.2056C21.1689 29.4819 21.4397 29.6844 21.7212 29.8079C22.011 29.9354 22.3497 30 22.7256 30C23.7458 30 24.7906 29.6185 24.7906 26.7893V19.6529H28.8857C29.5011 19.6529 29.9999 19.0435 29.9999 18.2919C30 17.5403 29.5012 16.931 28.8859 16.931ZM21.4637 12.1232V16.9309H17.8341L15.2334 12.1232H21.4637ZM8.58031 6.59895L10.0771 9.40179H8.58031V6.59895ZM8.58031 16.931V12.1232H11.5305L14.0976 16.931H8.58031ZM21.4637 23.6414L19.3066 19.6529H21.4637V23.6414Z" fill="#0D7D47"/>
</svg>
