<svg width="151" height="141" viewBox="0 0 291 281" fill="#0D6038" xmlns="http://www.w3.org/2000/svg">
<path d="M210.013 191.047C211.859 195.168 209.895 199.954 205.629 201.734C201.361 203.523 196.408 201.621 194.561 197.502C186.44 179.375 167.253 167.661 145.673 167.661C123.593 167.661 104.288 179.362 96.4977 197.48C95.1535 200.607 92.0188 202.493 88.7214 202.493C87.6438 202.493 86.5521 202.293 85.4941 201.873C81.2005 200.149 79.1659 195.391 80.9479 191.247C91.3593 167.043 116.768 151.404 145.673 151.404C173.974 151.404 199.231 166.964 210.013 191.047ZM87.1639 95.3052C87.1639 86.0294 94.957 78.5015 104.566 78.5015C114.172 78.5015 121.965 86.0267 121.965 95.3052C121.965 104.589 114.172 112.114 104.566 112.114C94.9542 112.114 87.1639 104.592 87.1639 95.3052ZM166.066 95.3052C166.066 86.0294 173.868 78.5015 183.474 78.5015C193.082 78.5015 200.875 86.0267 200.875 95.3052C200.875 104.589 193.082 112.114 183.474 112.114C173.87 112.114 166.066 104.592 166.066 95.3052ZM239.847 281H51.159C22.9528 281 0 258.839 0 231.602V49.4005C0 22.1611 22.9528 0 51.159 0H239.841C268.053 0 291 22.1611 291 49.4005V231.597C291.006 258.839 268.053 281 239.847 281ZM51.159 23.2478C36.2266 23.2478 24.0753 34.9814 24.0753 49.4005V231.597C24.0753 246.016 36.2266 257.75 51.159 257.75H239.841C254.773 257.75 266.925 246.016 266.925 231.597V49.4005C266.925 34.9814 254.773 23.2478 239.841 23.2478H51.159Z" fill="#0D6038"/>
</svg>