<svg width="25" height="25" viewBox="0 0 25 25" fill="none" xmlns="http://www.w3.org/2000/svg">
<path d="M24.0716 14.1091H20.6589V10.1027H24.0716C24.5843 10.1027 25 9.59546 25 8.96895C25 8.34238 24.5843 7.83482 24.0716 7.83482H20.6589V2.2757C20.6589 1.46421 20.5276 0.868594 20.2688 0.505772C20.0229 0.160612 19.6995 0 19.2517 0C18.8244 0 18.5133 0.159504 18.2721 0.502511C18.0163 0.865702 17.8865 1.46243 17.8865 2.27607V7.8355H11.4671L8.73762 2.79021C8.50403 2.33994 8.28438 1.91817 8.07109 1.51332C7.87905 1.14871 7.69175 0.851856 7.51483 0.6302C7.35821 0.433959 7.17973 0.282085 6.97096 0.16535C6.77399 0.0555063 6.52357 0.000369254 6.22731 0.000369254C5.84943 0.000369254 5.50642 0.126828 5.17796 0.386637C4.85293 0.643615 4.62825 0.96133 4.49102 1.358C4.37057 1.73497 4.30685 2.31262 4.30685 3.05826V7.83513H0.928088C0.415406 7.83519 0 8.34275 0 8.96926C0 9.59576 0.415406 10.103 0.928139 10.103H4.3069V14.1099H0.928139C0.415406 14.1099 0 14.6173 0 15.244C0 15.8703 0.415406 16.3774 0.928139 16.3774H4.3069V22.7245C4.3069 23.512 4.44236 24.1016 4.71067 24.4762C4.96582 24.8334 5.28934 24.9993 5.72868 24.9993C6.15255 24.9993 6.47355 24.8327 6.73974 24.4748C7.01232 24.1081 7.15021 23.5189 7.15021 22.7245V16.3774H12.959L16.1025 22.2654C16.3211 22.6546 16.5468 23.0475 16.7718 23.4327C16.9749 23.7786 17.1965 24.0834 17.4302 24.338C17.6407 24.5683 17.8664 24.737 18.101 24.8399C18.3425 24.9462 18.6248 25 18.938 25C19.7881 25 20.6588 24.6821 20.6588 22.3244V16.3774H24.0715C24.5842 16.3774 24.9999 15.8696 24.9999 15.2433C25 14.6169 24.5843 14.1091 24.0716 14.1091ZM17.8864 10.1026V14.1091H14.8618L12.6945 10.1026H17.8864ZM7.15026 5.49913L8.39758 7.83482H7.15026V5.49913ZM7.15026 14.1091V10.1027H9.60874L11.748 14.1091H7.15026ZM17.8864 19.7012L16.0888 16.3774H17.8864V19.7012Z" fill="#0D7D47"/>
</svg>
