<svg width="88" height="35" viewBox="0 0 88 35" fill="none" xmlns="http://www.w3.org/2000/svg">
<path d="M14.8958 1.69837C13.7928 0.567038 12.3535 0 10.5778 0H3.70356C3.15923 0 2.85849 0.406174 2.80137 1.21774L0.00876551 27.3718C-0.0202571 27.6287 0.022817 27.8636 0.137594 28.0772C0.251715 28.2912 0.395252 28.3976 0.567155 28.3976H3.83239C4.4051 28.3976 4.71988 27.9924 4.77766 27.1798L5.5509 20.1289C5.57913 19.7872 5.67986 19.5093 5.85176 19.2954C6.02353 19.0818 6.23838 18.9421 6.49617 18.878C6.75396 18.8145 6.99704 18.7826 7.22659 18.7826C7.45549 18.7826 7.72746 18.8041 8.04303 18.8467C8.35782 18.8894 8.55848 18.9101 8.6445 18.9101C11.1076 18.9101 13.041 17.8746 14.4447 15.8014C15.8477 13.729 16.5501 10.8554 16.5501 7.17948C16.5501 4.65837 15.9982 2.83147 14.8958 1.69837ZM11.3513 9.55147C11.2077 11.0474 10.8358 12.0299 10.2343 12.5001C9.63271 12.9709 8.77346 13.2051 7.65655 13.2051L6.23864 13.2692L6.9692 6.41004C7.02619 5.94038 7.21228 5.70526 7.52759 5.70526H8.34416C9.4893 5.70526 10.3205 5.95155 10.836 6.44217C11.3513 6.93397 11.5232 7.97067 11.3513 9.55147Z" fill="#003087"/>
<path d="M87.4407 0H84.2617C83.9458 0 83.7599 0.235124 83.7031 0.70537L80.9103 27.372L80.8672 27.5002C80.8672 27.7149 80.9246 27.9169 81.0394 28.1093C81.1533 28.3013 81.2971 28.3976 81.4688 28.3976H84.3047C84.8481 28.3976 85.149 27.9924 85.207 27.1798L87.9997 0.961065V0.897386C87.9995 0.299194 87.8128 0 87.4407 0Z" fill="#009CDE"/>
<path d="M49.0313 10.3201C49.0313 10.1069 48.9737 9.90356 48.8598 9.71154C48.7449 9.51933 48.6158 9.42273 48.4731 9.42273H45.1647C44.849 9.42273 44.5914 9.63747 44.3914 10.0636L39.8372 20.0642L37.9468 10.4486C37.803 9.76542 37.4882 9.42273 37.0017 9.42273H33.7788C33.6353 9.42273 33.5065 9.51913 33.3926 9.71154C33.2777 9.90356 33.2207 10.1071 33.2207 10.3201C33.2207 10.4063 33.5 11.6664 34.0584 14.1023C34.6168 16.5387 35.2183 19.167 35.8628 21.9877C36.5073 24.8078 36.8437 26.3044 36.8724 26.4742C34.5236 31.2609 33.3495 33.8252 33.3495 34.1665C33.3495 34.7225 33.5355 35 33.9081 35H37.2164C37.5313 35 37.7889 34.7868 37.9897 34.3593L48.9457 10.7688C49.0027 10.684 49.0313 10.5351 49.0313 10.3201Z" fill="#003087"/>
<path d="M79.8362 9.42275H76.5707C76.1695 9.42275 75.9267 10.1281 75.8408 11.5385C75.0953 9.82971 73.7355 8.97406 71.7588 8.97406C69.6965 8.97406 67.9418 10.1281 66.4958 12.4359C65.0491 14.7436 64.3262 17.4579 64.3262 20.5772C64.3262 23.0991 64.8201 25.1074 65.8082 26.6026C66.7964 28.0993 68.121 28.8463 69.7828 28.8463C70.6132 28.8463 71.4581 28.5894 72.3174 28.077C73.1768 27.5642 73.8493 26.8808 74.337 26.0258C74.337 26.0687 74.3078 26.2607 74.251 26.6024C74.1932 26.9449 74.165 27.2018 74.165 27.3716C74.165 28.0562 74.3507 28.3972 74.7236 28.3972H77.6884C78.2318 28.3972 78.5474 27.992 78.6331 27.1794L80.3948 10.4485C80.4231 10.192 80.3801 9.95727 80.2659 9.74331C80.151 9.52993 80.0081 9.42275 79.8362 9.42275ZM74.2294 22.0514C73.499 23.1198 72.6184 23.6538 71.5872 23.6538C70.7562 23.6538 70.0837 23.3124 69.5678 22.6282C69.0521 21.9456 68.7943 21.0053 68.7943 19.8077C68.7943 18.2275 69.1523 16.891 69.8686 15.8014C70.5839 14.7116 71.4726 14.1668 72.5325 14.1668C73.3337 14.1668 73.9998 14.5194 74.5302 15.2242C75.0597 15.9296 75.3252 16.902 75.3252 18.1415C75.3251 19.6798 74.9597 20.9836 74.2294 22.0514Z" fill="#009CDE"/>
<path d="M31.028 9.42275H27.7626C27.361 9.42275 27.1181 10.1281 27.0321 11.5385C26.2587 9.82971 24.898 8.97406 22.9504 8.97406C20.8881 8.97406 19.1335 10.1281 17.6872 12.4359C16.2405 14.7436 15.5176 17.4579 15.5176 20.5772C15.5176 23.0991 16.0117 25.1074 17 26.6026C17.9882 28.0993 19.3126 28.8463 20.9741 28.8463C21.7757 28.8463 22.6068 28.5894 23.466 28.077C24.3252 27.5642 25.0127 26.8808 25.5283 26.0258C25.4134 26.5385 25.3564 26.9874 25.3564 27.3716C25.3564 28.0562 25.5425 28.3972 25.9149 28.3972H28.8794C29.4232 28.3972 29.7386 27.992 29.8247 27.1794L31.5861 10.4485C31.6143 10.192 31.5715 9.95727 31.4573 9.74331C31.3426 9.52993 31.1995 9.42275 31.028 9.42275ZM25.421 22.0831C24.6904 23.1314 23.7949 23.6538 22.7358 23.6538C21.9046 23.6538 21.2387 23.3124 20.7378 22.6282C20.2363 21.9456 19.9859 21.0053 19.9859 19.8077C19.9859 18.2275 20.3437 16.891 21.0601 15.8014C21.7757 14.7116 22.6637 14.1668 23.7239 14.1668C24.5255 14.1668 25.1914 14.5194 25.7218 15.2242C26.2513 15.9296 26.5166 16.902 26.5166 18.1415C26.5166 19.7227 26.1514 21.0372 25.421 22.0831Z" fill="#003087"/>
<path d="M63.7044 1.69837C62.6015 0.567038 61.1625 0 59.3866 0H52.5552C51.982 0 51.6668 0.406174 51.61 1.21774L48.8174 27.3718C48.7883 27.6287 48.8313 27.8636 48.9462 28.0772C49.0599 28.2912 49.2039 28.3976 49.3758 28.3976H52.8987C53.2423 28.3976 53.4714 28.1201 53.5861 27.5644L54.3596 20.1289C54.388 19.7872 54.4883 19.5093 54.6604 19.2954C54.8323 19.0818 55.0469 18.9421 55.3049 18.878C55.5626 18.8145 55.8056 18.7826 56.0353 18.7826C56.2642 18.7826 56.5362 18.8041 56.8514 18.8467C57.1664 18.8894 57.3675 18.9101 57.4528 18.9101C59.9163 18.9101 61.8494 17.8746 63.2532 15.8014C64.6566 13.729 65.3584 10.8554 65.3584 7.17948C65.3585 4.65837 64.8069 2.83147 63.7044 1.69837ZM59.3006 12.2436C58.6703 12.8845 57.7251 13.2049 56.465 13.2049L55.0901 13.269L55.8206 6.40984C55.8773 5.94018 56.0634 5.70506 56.379 5.70506H57.1521C57.7821 5.70506 58.2833 5.74778 58.6563 5.83301C59.0281 5.91902 59.3866 6.1855 59.7303 6.63419C60.0742 7.08288 60.2458 7.73495 60.2458 8.58943C60.2458 10.3846 59.9304 11.6021 59.3006 12.2436Z" fill="#009CDE"/>
</svg>

