<svg width="135" height="30" viewBox="0 0 135 30" fill="none" xmlns="http://www.w3.org/2000/svg">
<path opacity="0.3" d="M11.4773 0.727272V24H5.86364V5.97727H5.72727L0.522727 9.15909V4.29545L6.26136 0.727272H11.4773ZM26.2472 24.5682C24.2169 24.5682 22.4669 24.0871 20.9972 23.125C19.5275 22.1553 18.3949 20.7652 17.5994 18.9545C16.804 17.1364 16.41 14.9508 16.4176 12.3977C16.4252 9.8447 16.8229 7.67803 17.6108 5.89773C18.4063 4.10985 19.535 2.75 20.9972 1.81818C22.4669 0.878787 24.2169 0.40909 26.2472 0.40909C28.2775 0.40909 30.0275 0.878787 31.4972 1.81818C32.9744 2.75 34.1108 4.10985 34.9062 5.89773C35.7017 7.68561 36.0956 9.85227 36.0881 12.3977C36.0881 14.9583 35.6903 17.1477 34.8949 18.9659C34.0994 20.7841 32.9669 22.1742 31.4972 23.1364C30.035 24.0909 28.285 24.5682 26.2472 24.5682ZM26.2472 19.9659C27.4593 19.9659 28.4403 19.3485 29.1903 18.1136C29.9403 16.8712 30.3116 14.9659 30.304 12.3977C30.304 10.7159 30.1335 9.32955 29.7926 8.23864C29.4517 7.14015 28.9782 6.32197 28.3722 5.78409C27.7661 5.24621 27.0578 4.97727 26.2472 4.97727C25.0426 4.97727 24.0691 5.58712 23.3267 6.80682C22.5843 8.01894 22.2093 9.88258 22.2017 12.3977C22.1941 14.1023 22.357 15.5152 22.6903 16.6364C23.0313 17.7576 23.5085 18.5947 24.1222 19.1477C24.7358 19.6932 25.4441 19.9659 26.2472 19.9659ZM48.9347 24.5682C46.9044 24.5682 45.1544 24.0871 43.6847 23.125C42.215 22.1553 41.0824 20.7652 40.2869 18.9545C39.4915 17.1364 39.0975 14.9508 39.1051 12.3977C39.1127 9.8447 39.5104 7.67803 40.2983 5.89773C41.0938 4.10985 42.2225 2.75 43.6847 1.81818C45.1544 0.878787 46.9044 0.40909 48.9347 0.40909C50.965 0.40909 52.715 0.878787 54.1847 1.81818C55.6619 2.75 56.7983 4.10985 57.5938 5.89773C58.3892 7.68561 58.7831 9.85227 58.7756 12.3977C58.7756 14.9583 58.3778 17.1477 57.5824 18.9659C56.7869 20.7841 55.6544 22.1742 54.1847 23.1364C52.7225 24.0909 50.9725 24.5682 48.9347 24.5682ZM48.9347 19.9659C50.1468 19.9659 51.1278 19.3485 51.8778 18.1136C52.6278 16.8712 52.9991 14.9659 52.9915 12.3977C52.9915 10.7159 52.821 9.32955 52.4801 8.23864C52.1392 7.14015 51.6657 6.32197 51.0597 5.78409C50.4536 5.24621 49.7453 4.97727 48.9347 4.97727C47.7301 4.97727 46.7566 5.58712 46.0142 6.80682C45.2718 8.01894 44.8968 9.88258 44.8892 12.3977C44.8816 14.1023 45.0445 15.5152 45.3778 16.6364C45.7188 17.7576 46.196 18.5947 46.8097 19.1477C47.4233 19.6932 48.1316 19.9659 48.9347 19.9659ZM66.7131 20.8182L66.6108 22.0795C66.5199 23.125 66.3343 24.1439 66.054 25.1364C65.7813 26.1364 65.4896 27.0341 65.179 27.8295C64.8684 28.625 64.6222 29.2424 64.4403 29.6818H60.9403C61.0616 29.2424 61.2244 28.625 61.429 27.8295C61.6411 27.0341 61.8381 26.1364 62.0199 25.1364C62.2017 24.1364 62.304 23.1212 62.3267 22.0909L62.3494 20.8182H66.7131ZM79.5597 24.5682C77.5294 24.5682 75.7794 24.0871 74.3097 23.125C72.84 22.1553 71.7074 20.7652 70.9119 18.9545C70.1165 17.1364 69.7225 14.9508 69.7301 12.3977C69.7377 9.8447 70.1354 7.67803 70.9233 5.89773C71.7188 4.10985 72.8475 2.75 74.3097 1.81818C75.7794 0.878787 77.5294 0.40909 79.5597 0.40909C81.59 0.40909 83.34 0.878787 84.8097 1.81818C86.2869 2.75 87.4233 4.10985 88.2188 5.89773C89.0142 7.68561 89.4081 9.85227 89.4006 12.3977C89.4006 14.9583 89.0028 17.1477 88.2074 18.9659C87.4119 20.7841 86.2794 22.1742 84.8097 23.1364C83.3475 24.0909 81.5975 24.5682 79.5597 24.5682ZM79.5597 19.9659C80.7718 19.9659 81.7528 19.3485 82.5028 18.1136C83.2528 16.8712 83.6241 14.9659 83.6165 12.3977C83.6165 10.7159 83.446 9.32955 83.1051 8.23864C82.7642 7.14015 82.2907 6.32197 81.6847 5.78409C81.0786 5.24621 80.3703 4.97727 79.5597 4.97727C78.3551 4.97727 77.3816 5.58712 76.6392 6.80682C75.8968 8.01894 75.5218 9.88258 75.5142 12.3977C75.5066 14.1023 75.6695 15.5152 76.0028 16.6364C76.3438 17.7576 76.821 18.5947 77.4347 19.1477C78.0483 19.6932 78.7566 19.9659 79.5597 19.9659ZM102.247 24.5682C100.217 24.5682 98.4669 24.0871 96.9972 23.125C95.5275 22.1553 94.3949 20.7652 93.5994 18.9545C92.804 17.1364 92.41 14.9508 92.4176 12.3977C92.4252 9.8447 92.8229 7.67803 93.6108 5.89773C94.4063 4.10985 95.535 2.75 96.9972 1.81818C98.4669 0.878787 100.217 0.40909 102.247 0.40909C104.277 0.40909 106.027 0.878787 107.497 1.81818C108.974 2.75 110.111 4.10985 110.906 5.89773C111.702 7.68561 112.096 9.85227 112.088 12.3977C112.088 14.9583 111.69 17.1477 110.895 18.9659C110.099 20.7841 108.967 22.1742 107.497 23.1364C106.035 24.0909 104.285 24.5682 102.247 24.5682ZM102.247 19.9659C103.459 19.9659 104.44 19.3485 105.19 18.1136C105.94 16.8712 106.312 14.9659 106.304 12.3977C106.304 10.7159 106.134 9.32955 105.793 8.23864C105.452 7.14015 104.978 6.32197 104.372 5.78409C103.766 5.24621 103.058 4.97727 102.247 4.97727C101.043 4.97727 100.069 5.58712 99.3267 6.80682C98.5843 8.01894 98.2093 9.88258 98.2017 12.3977C98.1941 14.1023 98.357 15.5152 98.6903 16.6364C99.0313 17.7576 99.5085 18.5947 100.122 19.1477C100.736 19.6932 101.444 19.9659 102.247 19.9659ZM124.935 24.5682C122.904 24.5682 121.154 24.0871 119.685 23.125C118.215 22.1553 117.082 20.7652 116.287 18.9545C115.491 17.1364 115.098 14.9508 115.105 12.3977C115.113 9.8447 115.51 7.67803 116.298 5.89773C117.094 4.10985 118.223 2.75 119.685 1.81818C121.154 0.878787 122.904 0.40909 124.935 0.40909C126.965 0.40909 128.715 0.878787 130.185 1.81818C131.662 2.75 132.798 4.10985 133.594 5.89773C134.389 7.68561 134.783 9.85227 134.776 12.3977C134.776 14.9583 134.378 17.1477 133.582 18.9659C132.787 20.7841 131.654 22.1742 130.185 23.1364C128.723 24.0909 126.973 24.5682 124.935 24.5682ZM124.935 19.9659C126.147 19.9659 127.128 19.3485 127.878 18.1136C128.628 16.8712 128.999 14.9659 128.991 12.3977C128.991 10.7159 128.821 9.32955 128.48 8.23864C128.139 7.14015 127.666 6.32197 127.06 5.78409C126.454 5.24621 125.745 4.97727 124.935 4.97727C123.73 4.97727 122.757 5.58712 122.014 6.80682C121.272 8.01894 120.897 9.88258 120.889 12.3977C120.882 14.1023 121.045 15.5152 121.378 16.6364C121.719 17.7576 122.196 18.5947 122.81 19.1477C123.423 19.6932 124.132 19.9659 124.935 19.9659Z" fill="#0D7D47"/>
</svg>
