<svg width="76" height="47" viewBox="0 0 76 47" fill="none" xmlns="http://www.w3.org/2000/svg">
<path d="M64.8985 6H11.1014C8.284 6 6 7.83373 6 10.0957V36.9043C6 39.1663 8.284 41 11.1014 41H64.8985C67.716 41 70 39.1663 70 36.9043V10.0957C70 7.83373 67.716 6 64.8985 6Z" fill="white" stroke="#D9D9D9" stroke-width="11.4286"/>
<path fill-rule="evenodd" clip-rule="evenodd" d="M40 31.3723C37.7758 33.0108 34.8905 34 31.7378 34C24.7029 34 19 29.0752 19 23C19 16.9248 24.7029 12 31.7378 12C34.8905 12 37.7758 12.9892 40 14.6278C42.2243 12.9892 45.1095 12 48.2623 12C55.2971 12 61 16.9248 61 23C61 29.0752 55.2971 34 48.2623 34C45.1095 34 42.2243 33.0108 40 31.3723Z" fill="#ED0006"/>
<path fill-rule="evenodd" clip-rule="evenodd" d="M40 31.3723C42.7388 29.3547 44.4754 26.3525 44.4754 23C44.4754 19.6475 42.7388 16.6453 40 14.6278C42.2243 12.9892 45.1095 12 48.2623 12C55.2971 12 61 16.9248 61 23C61 29.0752 55.2971 34 48.2623 34C45.1095 34 42.2243 33.0108 40 31.3723Z" fill="#F9A000"/>
<path fill-rule="evenodd" clip-rule="evenodd" d="M40 16C42.4478 17.9279 44 20.7966 44 24C44 27.2034 42.4478 30.0721 40 32C37.5522 30.0721 36 27.2034 36 24C36 20.7966 37.5522 17.9279 40 16Z" fill="#FF5E00"/>
</svg>
