<svg width="65" height="46" viewBox="0 0 65 46" fill="none" xmlns="http://www.w3.org/2000/svg">
<path d="M54.7754 6H10.2246C7.89143 6 6 7.78133 6 9.97872V36.0213C6 38.2187 7.89143 40 10.2246 40H54.7754C57.1086 40 59 38.2187 59 36.0213V9.97872C59 7.78133 57.1086 6 54.7754 6Z" fill="white" stroke="#D9D9D9" stroke-width="11.4286"/>
<path fill-rule="evenodd" clip-rule="evenodd" d="M23.2504 28.9065H20.0483L17.6471 19.5972C17.5331 19.1691 17.2911 18.7904 16.9352 18.612C16.0468 18.1637 15.0679 17.8068 14 17.6268V17.2684H19.1583C19.8703 17.2684 20.4042 17.8068 20.4932 18.4321L21.7391 25.1471L24.9397 17.2684H28.0528L23.2504 28.9065ZM29.8326 28.9065H26.8085L29.2987 17.2684H32.3228L29.8326 28.9065ZM36.2353 20.4925C36.3243 19.8657 36.8582 19.5073 37.4812 19.5073C38.4601 19.4173 39.5264 19.5973 40.4163 20.0441L40.9503 17.5384C40.0603 17.1799 39.0815 17 38.1931 17C35.2579 17 33.1221 18.612 33.1221 20.8494C33.1221 22.5514 34.635 23.4451 35.7029 23.9835C36.8582 24.5203 37.3032 24.8787 37.2142 25.4156C37.2142 26.2208 36.3243 26.5792 35.4359 26.5792C34.368 26.5792 33.3001 26.3108 32.3228 25.8624L31.7888 28.3697C32.8567 28.8165 34.0121 28.9965 35.08 28.9965C38.3711 29.0849 40.4163 27.4744 40.4163 25.0571C40.4163 22.013 36.2353 21.8346 36.2353 20.4925ZM51 28.9065L48.5988 17.2684H46.0196C45.4856 17.2684 44.9517 17.6268 44.7737 18.1637L40.3273 28.9065H43.4404L44.0618 27.206H47.8869L48.2428 28.9065H51ZM46.4646 20.4026L47.3529 24.7887H44.8628L46.4646 20.4026Z" fill="#172B85"/>
</svg>
